<?xml version="1.0" encoding="UTF-8"?>
<!DOCTYPE svg PUBLIC "-//W3C//DTD SVG 1.1//EN" "http://www.w3.org/Graphics/SVG/1.1/DTD/svg11.dtd">
<!-- Creator: CorelDRAW X7 -->
<svg xmlns="http://www.w3.org/2000/svg" xml:space="preserve" width="300px" height="87px" version="1.1" style="shape-rendering:geometricPrecision; text-rendering:geometricPrecision; image-rendering:optimizeQuality; fill-rule:evenodd; clip-rule:evenodd"
viewBox="0 0 350 102"
 xmlns:xlink="http://www.w3.org/1999/xlink">
 <defs>
  <style type="text/css">
   <![CDATA[
    .fil0 {fill:#2B2A29;fill-rule:nonzero}
    .fil1 {fill:#1F1B20}
   ]]>
  </style>
 </defs>
 <g id="Layer_x0020_1">
  <metadata id="CorelCorpID_0Corel-Layer"/>
  <path class="fil0" d="M135 53l13 0c-1,3 -3,6 -5,7 -2,2 -5,3 -8,3 -4,0 -8,-1 -10,-4 -3,-3 -4,-6 -4,-10 0,-4 1,-7 4,-10 2,-2 6,-3 10,-3 2,0 5,0 7,1 2,2 3,3 4,6l8 0c-1,-4 -3,-8 -7,-10 -4,-3 -8,-4 -12,-4 -6,0 -11,2 -15,6 -4,4 -6,8 -6,14 0,6 2,11 6,15 4,4 9,5 15,5 5,0 10,-1 14,-5 4,-4 6,-9 6,-14l0 -3 -20 0 0 6z"/>
  <path id="1" class="fil0" d="M190 54c0,-4 -2,-8 -4,-10 -3,-3 -7,-5 -12,-5 -4,0 -8,2 -11,5 -2,2 -4,6 -4,10 0,5 2,8 4,11 3,3 7,4 11,4 4,0 7,0 10,-2 2,-2 4,-4 5,-7l-7 0c-1,2 -4,4 -7,4 -3,0 -5,-1 -6,-2 -2,-1 -3,-3 -3,-5l24 0c0,-1 0,-2 0,-3zm-10 -7c1,1 3,3 3,5l-17 0c0,-2 1,-4 3,-5 2,-1 3,-2 5,-2 3,0 4,1 6,2z"/>
  <polygon id="2" class="fil0" points="204,40 204,31 198,33 198,40 192,40 192,46 198,46 198,69 204,69 204,46 210,46 210,40 "/>
  <polygon id="3" class="fil0" points="227,30 227,36 237,36 237,69 244,69 244,36 254,36 254,30 "/>
  <polygon id="4" class="fil0" points="290,61 283,40 277,40 269,61 262,40 255,40 266,69 272,69 280,47 287,69 294,69 304,40 297,40 "/>
  <path id="5" class="fil0" d="M312 35c1,0 2,0 3,-1 1,-1 1,-2 1,-3 0,-2 -2,-4 -4,-4 -1,0 -2,0 -3,1 -1,1 -1,2 -1,3 0,1 0,2 1,3 1,1 2,1 3,1zm3 34l0 -29 -6 0 0 29 6 0z"/>
  <path id="6" class="fil0" d="M339 39c-4,0 -8,2 -10,5l0 -4 -6 0 0 29 6 0 0 -16c0,-2 1,-4 2,-6 1,-1 3,-2 6,-2 2,0 4,1 5,2 1,2 2,3 2,6l0 16 6 0 0 -18c0,-4 -1,-7 -3,-9 -2,-2 -5,-3 -8,-3z"/>
  <g id="_2020480306944">
   <path class="fil1" d="M2 50l49 -48c3,-3 8,-3 11,0l0 0c3,3 3,8 0,11l-49 48c-3,3 -8,3 -11,-1l0 0c-3,-3 -3,-7 0,-10z"/>
   <path class="fil1" d="M21 69l41 -40c3,-3 8,-3 11,0l0 0c3,3 3,8 0,11l-41 40c-3,3 -8,3 -11,0l0 0c-3,-3 -3,-8 0,-11z"/>
   <path class="fil1" d="M39 89l34 -33c3,-3 8,-3 11,0l0 0c3,4 3,8 0,11l-34 33c-3,3 -8,3 -11,0l0 0c-3,-4 -3,-8 0,-11z"/>
  </g>
 </g>
</svg>
