<?xml version="1.0" encoding="UTF-8"?>
<!DOCTYPE svg PUBLIC "-//W3C//DTD SVG 1.1//EN" "http://www.w3.org/Graphics/SVG/1.1/DTD/svg11.dtd">
<!-- Creator: CorelDRAW X7 -->
<svg xmlns="http://www.w3.org/2000/svg" xml:space="preserve" width="1844px" height="404px" version="1.1" style="shape-rendering:geometricPrecision; text-rendering:geometricPrecision; image-rendering:optimizeQuality; fill-rule:evenodd; clip-rule:evenodd"
viewBox="0 0 2498 548"
 xmlns:xlink="http://www.w3.org/1999/xlink">
 <defs>
  <style type="text/css">
   <![CDATA[
    .fil0 {fill:#FEFEFE}
   ]]>
  </style>
 </defs>
 <g id="Layer_x0020_1">
  <metadata id="CorelCorpID_0Corel-Layer"/>
  <path class="fil0" d="M0 114l0 159c0,17 13,25 24,32l110 63c41,22 42,22 80,1l146 -83c25,-15 49,-27 73,-42 33,-20 47,-6 83,14 69,40 58,22 58,136 0,30 -22,36 -46,50 -67,40 -60,40 -109,14 -13,-7 -26,-15 -39,-22 -38,-22 -29,-29 -29,-91 -5,0 -58,30 -64,35 0,98 -7,67 115,139 78,47 57,34 161,-21 16,-9 31,-18 46,-26 16,-8 31,-19 31,-42l0 -146c0,-29 -13,-34 -30,-44l-95 -54c-60,-33 -46,-33 -106,1l-151 86c-89,48 -66,59 -160,3 -46,-28 -36,-28 -36,-126 0,-26 27,-36 46,-47 77,-44 58,-42 149,9 38,22 29,41 29,92l63 -35c2,-14 1,-34 0,-49 0,-26 -11,-33 -28,-43 -21,-12 -132,-77 -140,-77 -22,0 -33,9 -57,23l-92 52c-16,9 -32,16 -32,39z"/>
  <path class="fil0" d="M1880 355c7,37 -9,74 -57,74 -18,0 -28,-2 -44,-10 -8,-4 -22,-14 -26,-19l-40 46c84,80 238,41 237,-69 0,-34 0,-69 0,-103 0,-15 2,-94 -1,-104l-62 0c-1,2 -2,5 -4,8l-4 7c-22,-17 -42,-25 -79,-25 -75,0 -131,83 -102,156 31,75 122,95 175,43l7 -4zm-1040 -165l-7 -25 -58 0c-2,13 -2,295 0,318l68 0 0 -119c19,10 31,22 61,23 72,4 129,-40 124,-123 -5,-85 -84,-130 -162,-91 -12,6 -17,11 -26,17zm457 89l0 -10c0,-126 -191,-144 -234,-44 -44,104 50,190 158,155 39,-12 76,-49 76,-101zm805 -119c-37,6 -59,12 -85,40 -58,64 -18,197 106,186 126,-11 142,-145 71,-201 -22,-18 -58,-30 -92,-25zm245 41c-9,-9 -2,-18 -9,-31l-60 0c-3,8 -3,204 0,211l67 0 0 -91c0,-33 16,-73 53,-73 55,0 19,92 31,164l69 0 0 -160c0,-53 -68,-77 -121,-49 -11,6 -26,18 -30,29zm-864 282l67 1c4,-12 11,-28 17,-39l118 -265c2,-5 9,-10 -11,-10l-46 0c-7,9 -23,48 -28,61 -9,21 -19,43 -29,62 -7,-7 -15,-31 -21,-43 -7,-15 -13,-30 -20,-45 -23,-44 5,-35 -93,-35 1,9 78,160 94,194 6,12 -3,20 -11,40 -6,12 -12,26 -18,39 -6,11 -15,30 -19,40zm-144 -102l68 0 1 -381 -68 0 -1 381zm422 -108c0,59 73,79 113,37 10,-11 6,-25 6,-36 0,-11 3,-22 -4,-34 -7,-12 -24,-21 -42,-24 -40,-7 -73,19 -73,57zm-917 -19l0 42c0,29 39,39 58,38 74,-7 71,-108 6,-116 -26,-3 -64,11 -64,36zm279 15c0,86 104,78 104,8 0,-36 -18,-62 -53,-62 -30,0 -51,25 -51,54zm937 2c0,37 19,60 56,60 64,0 64,-114 0,-114 -35,0 -56,23 -56,54z"/>
 </g>
</svg>
