<?xml version="1.0" encoding="UTF-8"?>
<!DOCTYPE svg PUBLIC "-//W3C//DTD SVG 1.1//EN" "http://www.w3.org/Graphics/SVG/1.1/DTD/svg11.dtd">
<!-- Creator: CorelDRAW X7 -->
<svg xmlns="http://www.w3.org/2000/svg" xml:space="preserve" width="2244px" height="260px" version="1.1" style="shape-rendering:geometricPrecision; text-rendering:geometricPrecision; image-rendering:optimizeQuality; fill-rule:evenodd; clip-rule:evenodd"
viewBox="0 0 1339 155"
 xmlns:xlink="http://www.w3.org/1999/xlink">
 <defs>
  <style type="text/css">
   <![CDATA[
    .fil0 {fill:#FEFEFE;fill-rule:nonzero}
   ]]>
  </style>
 </defs>
 <g id="Layer_x0020_1">
  <metadata id="CorelCorpID_0Corel-Layer"/>
  <polygon class="fil0" points="70,75 28,8 0,8 57,101 57,152 82,152 82,101 140,8 112,8 "/>
  <path id="1" class="fil0" d="M182 155c17,0 30,-5 41,-16 11,-11 17,-24 17,-40 0,-16 -6,-29 -17,-40 -11,-11 -24,-16 -41,-16 -16,0 -30,5 -41,16 -10,11 -16,24 -16,40 0,16 6,29 16,40 11,11 25,16 41,16zm-23 -32c-7,-7 -10,-15 -10,-24 0,-10 3,-18 10,-24 6,-6 14,-9 23,-9 10,0 18,3 24,9 6,6 9,14 9,24 0,9 -3,17 -9,24 -6,6 -14,9 -24,9 -9,0 -17,-3 -23,-9z"/>
  <path id="2" class="fil0" d="M334 106c0,8 -2,14 -7,19 -5,5 -11,7 -19,7 -8,0 -14,-2 -19,-7 -4,-4 -6,-11 -6,-18l0 -62 -24 0 0 69c0,12 4,22 11,30 8,7 18,11 30,11 15,0 26,-6 34,-17l0 14 24 0 0 -107 -24 0 0 61z"/>
  <path id="3" class="fil0" d="M409 45l-24 0 0 107 24 0 0 -52c0,-10 3,-17 9,-23 5,-6 13,-9 24,-9l0 -24c-14,0 -25,6 -33,19l0 -18z"/>
  <path id="4" class="fil0" d="M512 8l0 144 25 0 0 -50 25 0c14,0 25,-5 35,-14 9,-8 14,-20 14,-33 0,-14 -5,-25 -14,-34 -9,-9 -21,-13 -35,-13l-50 0zm25 70l0 -47 25 0c6,0 12,2 16,7 5,4 7,10 7,17 0,7 -2,12 -7,17 -4,4 -10,6 -16,6l-25 0z"/>
  <polygon id="5" class="fil0" points="653,152 653,1 630,1 630,152 "/>
  <path id="6" class="fil0" d="M765 62c-9,-13 -22,-19 -38,-19 -15,0 -27,5 -37,16 -10,11 -15,24 -15,40 0,16 5,29 15,40 10,11 22,16 37,16 16,0 29,-7 38,-19l0 16 23 0 0 -107 -23 0 0 17zm-33 70c-9,0 -17,-3 -24,-9 -6,-7 -9,-15 -9,-24 0,-10 3,-18 9,-24 7,-6 15,-9 24,-9 9,0 17,3 24,9 6,6 9,14 9,24 0,9 -3,17 -9,24 -7,6 -15,9 -24,9z"/>
  <polygon id="7" class="fil0" points="853,46 853,14 830,19 830,46 808,46 808,67 830,67 830,152 853,152 853,67 876,67 876,46 "/>
  <path id="8" class="fil0" d="M952 0c-32,0 -47,12 -47,40l0 6 -18 0 0 21 18 0 0 85 23 0 0 -85 24 0 0 -21 -24 0 0 -5c0,-14 8,-20 24,-20l0 -21z"/>
  <path id="9" class="fil0" d="M1017 155c16,0 30,-5 41,-16 11,-11 16,-24 16,-40 0,-16 -5,-29 -16,-40 -11,-11 -25,-16 -41,-16 -16,0 -30,5 -41,16 -11,11 -16,24 -16,40 0,16 5,29 16,40 11,11 25,16 41,16zm-23 -32c-7,-7 -10,-15 -10,-24 0,-10 3,-18 10,-24 6,-6 14,-9 23,-9 9,0 17,3 24,9 6,6 9,14 9,24 0,9 -3,17 -9,24 -7,6 -15,9 -24,9 -9,0 -17,-3 -23,-9z"/>
  <path id="10" class="fil0" d="M1119 45l-24 0 0 107 24 0 0 -52c0,-10 3,-17 9,-23 5,-6 13,-9 24,-9l0 -24c-14,0 -25,6 -33,19l0 -18z"/>
  <path id="11" class="fil0" d="M1300 43c-17,0 -29,7 -38,21 -6,-13 -18,-21 -35,-21 -14,0 -25,5 -33,16l0 -14 -23 0 0 107 23 0 0 -62c0,-7 2,-13 7,-18 5,-4 11,-6 18,-6 15,0 24,9 24,24l0 62 24 0 0 -62c0,-7 2,-13 7,-18 4,-4 10,-6 18,-6 14,0 24,9 24,24l0 62 23 0 0 -69c0,-12 -3,-22 -11,-29 -7,-7 -16,-11 -28,-11z"/>
 </g>
</svg>
