<?xml version="1.0" encoding="UTF-8"?>
<!DOCTYPE svg PUBLIC "-//W3C//DTD SVG 1.1//EN" "http://www.w3.org/Graphics/SVG/1.1/DTD/svg11.dtd">
<!-- Creator: CorelDRAW X7 -->
<svg xmlns="http://www.w3.org/2000/svg" xml:space="preserve" width="59px" height="70px" version="1.1" style="shape-rendering:geometricPrecision; text-rendering:geometricPrecision; image-rendering:optimizeQuality; fill-rule:evenodd; clip-rule:evenodd"
viewBox="0 0 59 70"
 xmlns:xlink="http://www.w3.org/1999/xlink">
 <defs>
  <style type="text/css">
   <![CDATA[
    .fil0 {fill:#1F1B20}
   ]]>
  </style>
 </defs>
 <g id="Layer_x0020_1">
  <metadata id="CorelCorpID_0Corel-Layer"/>
  <g id="_2785418910016">
   <path class="fil0" d="M2 34l33 -33c2,-2 6,-1 8,1l0 0c2,2 2,5 0,7l-34 33c-2,2 -5,2 -8,0l0 0c-2,-3 -1,-6 1,-8z"/>
   <path class="fil0" d="M14 47l29 -27c2,-2 5,-2 7,0l0 0c2,2 2,6 0,8l-28 27c-2,2 -6,2 -8,0l0 0c-2,-2 -2,-6 0,-8z"/>
   <path class="fil0" d="M27 61l23 -22c2,-2 5,-2 8,0l0 0c2,2 1,5 -1,7l-22 22c-3,2 -6,2 -8,0l0 0c-2,-2 -2,-5 0,-7z"/>
  </g>
 </g>
</svg>
