<?xml version="1.0" encoding="UTF-8"?>
<!DOCTYPE svg PUBLIC "-//W3C//DTD SVG 1.1//EN" "http://www.w3.org/Graphics/SVG/1.1/DTD/svg11.dtd">
<!-- Creator: CorelDRAW X7 -->
<svg xmlns="http://www.w3.org/2000/svg" xml:space="preserve" width="300px" height="87px" version="1.1" style="shape-rendering:geometricPrecision; text-rendering:geometricPrecision; image-rendering:optimizeQuality; fill-rule:evenodd; clip-rule:evenodd"
viewBox="0 0 340 99"
 xmlns:xlink="http://www.w3.org/1999/xlink">
 <defs>
  <style type="text/css">
   <![CDATA[
    .fil0 {fill:#2B2A29;fill-rule:nonzero}
    .fil1 {fill:#1F1B20}
   ]]>
  </style>
 </defs>
 <g id="Layer_x0020_1">
  <metadata id="CorelCorpID_0Corel-Layer"/>
  <g id="_2785418875520">
   <path class="fil0" d="M131 52l12 0c0,3 -2,5 -4,7 -3,1 -5,2 -8,2 -4,0 -7,-1 -10,-4 -2,-2 -4,-5 -4,-9 0,-4 2,-7 4,-10 3,-2 6,-4 10,-4 2,0 4,1 7,2 2,2 3,3 4,5l7 0c-1,-4 -3,-7 -6,-9 -4,-3 -8,-4 -12,-4 -6,0 -11,2 -15,6 -3,4 -5,8 -5,14 0,5 2,10 5,14 4,4 9,5 15,5 5,0 10,-1 14,-5 3,-4 5,-8 5,-14l0 -2 -19 0 0 6z"/>
   <path id="1" class="fil0" d="M184 53c0,-4 -1,-8 -4,-11 -3,-3 -6,-4 -11,-4 -4,0 -8,1 -10,4 -3,3 -5,7 -5,11 0,4 2,7 5,10 2,3 6,4 10,4 4,0 7,0 9,-2 3,-2 5,-4 6,-7l-7 0c-1,2 -4,4 -8,4 -2,0 -4,-1 -5,-2 -2,-1 -3,-3 -3,-5l23 0c0,-1 0,-1 0,-2zm-9 -8c1,2 2,3 3,5l-17 0c0,-2 2,-3 3,-5 2,-1 3,-1 5,-1 2,0 4,0 6,1z"/>
   <polygon id="2" class="fil0" points="198,39 198,30 192,32 192,39 186,39 186,44 192,44 192,67 198,67 198,44 204,44 204,39 "/>
   <polygon id="3" class="fil0" points="220,29 220,35 230,35 230,67 237,67 237,35 247,35 247,29 "/>
   <polygon id="4" class="fil0" points="282,59 275,39 268,39 261,59 255,39 248,39 258,67 264,67 271,46 278,67 285,67 295,39 288,39 "/>
   <path id="5" class="fil0" d="M303 34c1,0 2,0 3,-1 0,-1 1,-2 1,-3 0,-2 -2,-4 -4,-4 -1,0 -2,1 -3,1 -1,1 -1,2 -1,3 0,1 0,2 1,3 1,1 2,1 3,1zm3 33l0 -28 -6 0 0 28 6 0z"/>
   <path id="6" class="fil0" d="M329 38c-4,0 -8,2 -10,5l0 -4 -6 0 0 28 6 0 0 -16c0,-2 1,-4 2,-5 2,-1 3,-2 6,-2 2,0 3,1 5,2 1,1 2,3 2,5l0 16 6 0 0 -18c0,-3 -1,-6 -3,-8 -2,-2 -5,-3 -8,-3z"/>
   <g>
    <path class="fil1" d="M2 48l48 -46c3,-3 7,-3 10,0l0 0c3,3 3,8 0,11l-47 46c-3,3 -8,3 -11,0l0 0c-3,-3 -3,-8 0,-11z"/>
    <path class="fil1" d="M20 67l40 -39c3,-2 8,-2 11,1l0 0c3,3 3,7 0,10l-40 39c-3,3 -8,3 -11,0l0 0c-3,-3 -3,-8 0,-11z"/>
    <path class="fil1" d="M38 86l33 -31c3,-3 7,-3 10,0l0 0c3,3 3,8 0,10l-32 32c-3,3 -8,3 -11,0l0 0c-3,-3 -3,-8 0,-11z"/>
   </g>
  </g>
 </g>
</svg>
