<?xml version="1.0" encoding="UTF-8"?>
<!DOCTYPE svg PUBLIC "-//W3C//DTD SVG 1.1//EN" "http://www.w3.org/Graphics/SVG/1.1/DTD/svg11.dtd">
<!-- Creator: CorelDRAW X7 -->
<svg xmlns="http://www.w3.org/2000/svg" xml:space="preserve" width="100px" height="100px" version="1.1" style="shape-rendering:geometricPrecision; text-rendering:geometricPrecision; image-rendering:optimizeQuality; fill-rule:evenodd; clip-rule:evenodd"
viewBox="0 0 100 100"
 xmlns:xlink="http://www.w3.org/1999/xlink">
 <defs>
  <style type="text/css">
   <![CDATA[
    .fil0 {fill:#FEFEFE}
    .fil1 {fill:#1F1B20}
   ]]>
  </style>
 </defs>
 <g id="Layer_x0020_1">
  <metadata id="CorelCorpID_0Corel-Layer"/>
  <rect class="fil0" width="100" height="100" rx="6" ry="6"/>
  <g id="_2787358426000">
   <path class="fil1" d="M20 49l36 -35c2,-3 6,-3 8,0l0 0c3,2 2,6 0,8l-36 35c-3,2 -6,2 -8,0l0 0c-3,-2 -3,-6 0,-8z"/>
   <path class="fil1" d="M34 64l30 -30c3,-2 6,-2 8,0l0 0c3,2 3,6 0,8l-30 30c-3,2 -6,2 -9,0l0 0c-2,-3 -2,-6 1,-8z"/>
   <path class="fil1" d="M47 78l25 -24c3,-2 6,-2 8,0l0 0c3,2 3,6 0,8l-25 24c-2,3 -6,3 -8,0l0 0c-2,-2 -2,-6 0,-8z"/>
  </g>
 </g>
</svg>
